<?xml version="1.0" encoding="utf-8"?>
<!-- Generator: Adobe Illustrator 16.0.0, SVG Export Plug-In . SVG Version: 6.00 Build 0)  -->
<!DOCTYPE svg PUBLIC "-//W3C//DTD SVG 1.1//EN" "http://www.w3.org/Graphics/SVG/1.1/DTD/svg11.dtd">
<svg version="1.1" id="Layer_1" xmlns="http://www.w3.org/2000/svg" xmlns:xlink="http://www.w3.org/1999/xlink" x="0px" y="0px"
	 width="32px" height="32px" viewBox="0 0 32 32" enable-background="new 0 0 32 32" xml:space="preserve">
<g>
	<defs>
		<rect id="SVGID_1_" width="32" height="32"/>
	</defs>
	<clipPath id="SVGID_2_">
		<use xlink:href="#SVGID_1_"  overflow="visible"/>
	</clipPath>
	<g clip-path="url(#SVGID_2_)">
		<defs>
			<rect id="SVGID_3_" width="32" height="32"/>
		</defs>
		<clipPath id="SVGID_4_">
			<use xlink:href="#SVGID_3_"  overflow="visible"/>
		</clipPath>
		<path clip-path="url(#SVGID_4_)" fill="#231F20" d="M25.001,15h4.614l-0.614,4h-4V15z M18.001,5h6v4h-6V5z M18.001,10h6v4h-6V10z
			 M18.001,15h6v4h-6V15z M17.001,5v4h-6L10.09,5H17.001z M12.188,14l-0.91-4h5.723v4H12.188z M17.001,15v4h-3.626l-0.912-4H17.001z
			 M13,30.001c-1.657,0-3-1.344-3-3c0-1.657,1.343-3,3-3c1.657,0,3,1.343,3,3C16.001,28.657,14.658,30.001,13,30.001 M27.001,30.001
			c-1.657,0-3-1.344-3-3c0-1.657,1.343-3,3-3c1.656,0,3,1.343,3,3C30.001,28.657,28.657,30.001,27.001,30.001 M30.001,23.001H10.612
			L5.571,4H2V2h5.171l5.039,19h17.79V23.001z M29.771,14h-4.77v-4h5.23L29.771,14z M30.386,9h-5.385V5h6L30.386,9z"/>
	</g>
</g>
</svg>
